<?xml version="1.0" encoding="UTF-8"?>
<svg xmlns="http://www.w3.org/2000/svg" xmlns:xlink="http://www.w3.org/1999/xlink" width="32pt" height="32pt" viewBox="0 0 32 32" version="1.1">
<g id="surface1">
<path style=" stroke:none;fill-rule:nonzero;fill:rgb(39.215686%,93.333333%,67.843137%);fill-opacity:1;" d="M 28.003906 3.992188 C 24.726562 0.714844 19.417969 0.714844 16.140625 3.992188 C 13.519531 6.613281 12.996094 10.535156 14.570312 13.679688 L 1.546875 26.699219 L 1.539062 30.457031 L 8.820312 30.464844 L 8.820312 26.921875 L 12.363281 26.921875 L 12.363281 23.382812 L 15.90625 23.382812 L 15.90625 19.839844 L 18.316406 17.425781 C 21.460938 19 25.382812 18.476562 28.003906 15.855469 C 31.28125 12.578125 31.28125 7.269531 28.003906 3.992188 Z M 25.335938 10.246094 C 24.347656 11.238281 22.742188 11.238281 21.75 10.246094 C 20.757812 9.253906 20.757812 7.648438 21.75 6.660156 C 22.742188 5.667969 24.347656 5.667969 25.335938 6.660156 C 26.328125 7.648438 26.328125 9.253906 25.335938 10.246094 Z M 25.335938 10.246094 "/>
</g>
</svg>
