<?xml version="1.0" encoding="UTF-8"?>
<svg xmlns="http://www.w3.org/2000/svg" xmlns:xlink="http://www.w3.org/1999/xlink" width="32pt" height="32pt" viewBox="0 0 32 32" version="1.1">
<g id="surface1">
<path style=" stroke:none;fill-rule:nonzero;fill:rgb(39.215686%,93.333333%,67.843137%);fill-opacity:1;" d="M 32 16 C 32 7.179688 24.820312 0 16 0 C 7.179688 0 0 7.179688 0 16 C 0 20.660156 2.003906 24.859375 5.191406 27.785156 L 5.179688 27.800781 L 5.695312 28.238281 C 5.730469 28.265625 5.765625 28.289062 5.800781 28.316406 C 6.078125 28.546875 6.363281 28.761719 6.652344 28.972656 C 6.746094 29.039062 6.84375 29.109375 6.9375 29.175781 C 7.25 29.390625 7.566406 29.59375 7.894531 29.785156 C 7.964844 29.828125 8.035156 29.867188 8.109375 29.910156 C 8.464844 30.113281 8.828125 30.304688 9.203125 30.480469 C 9.230469 30.492188 9.257812 30.503906 9.285156 30.515625 C 10.5 31.082031 11.796875 31.496094 13.152344 31.742188 C 13.1875 31.746094 13.226562 31.753906 13.261719 31.757812 C 13.683594 31.832031 14.109375 31.890625 14.539062 31.929688 C 14.589844 31.933594 14.644531 31.9375 14.695312 31.941406 C 15.125 31.976562 15.558594 32 16 32 C 16.4375 32 16.867188 31.976562 17.292969 31.941406 C 17.347656 31.9375 17.402344 31.933594 17.457031 31.929688 C 17.882812 31.890625 18.304688 31.835938 18.722656 31.765625 C 18.757812 31.757812 18.796875 31.75 18.832031 31.742188 C 20.167969 31.503906 21.445312 31.097656 22.644531 30.546875 C 22.691406 30.527344 22.734375 30.507812 22.78125 30.488281 C 23.136719 30.320312 23.488281 30.136719 23.832031 29.941406 C 23.917969 29.894531 24.003906 29.847656 24.089844 29.796875 C 24.402344 29.613281 24.710938 29.417969 25.007812 29.214844 C 25.117188 29.140625 25.222656 29.0625 25.328125 28.988281 C 25.582031 28.804688 25.832031 28.613281 26.078125 28.414062 C 26.132812 28.371094 26.191406 28.332031 26.242188 28.289062 L 26.773438 27.84375 L 26.757812 27.832031 C 29.976562 24.902344 32 20.683594 32 16 Z M 1.164062 16 C 1.164062 7.820312 7.820312 1.164062 16 1.164062 C 24.179688 1.164062 30.835938 7.820312 30.835938 16 C 30.835938 20.410156 28.902344 24.371094 25.839844 27.089844 C 25.667969 26.972656 25.496094 26.867188 25.320312 26.777344 L 20.394531 24.316406 C 19.949219 24.09375 19.675781 23.648438 19.675781 23.15625 L 19.675781 21.4375 C 19.789062 21.296875 19.910156 21.136719 20.035156 20.960938 C 20.671875 20.058594 21.183594 19.058594 21.558594 17.980469 C 22.292969 17.628906 22.769531 16.894531 22.769531 16.066406 L 22.769531 14.003906 C 22.769531 13.5 22.585938 13.011719 22.253906 12.625 L 22.253906 9.910156 C 22.285156 9.609375 22.390625 7.902344 21.160156 6.5 C 20.085938 5.273438 18.351562 4.65625 16 4.65625 C 13.648438 4.65625 11.914062 5.273438 10.839844 6.496094 C 9.609375 7.902344 9.714844 9.609375 9.746094 9.910156 L 9.746094 12.625 C 9.414062 13.007812 9.230469 13.5 9.230469 14.003906 L 9.230469 16.066406 C 9.230469 16.707031 9.515625 17.304688 10.007812 17.707031 C 10.480469 19.554688 11.449219 20.949219 11.808594 21.425781 L 11.808594 23.109375 C 11.808594 23.582031 11.550781 24.019531 11.132812 24.246094 L 6.53125 26.757812 C 6.386719 26.835938 6.238281 26.929688 6.09375 27.035156 C 3.070312 24.316406 1.164062 20.375 1.164062 16 Z M 1.164062 16 "/>
</g>
</svg>
